# xmcd CD database file
#
# Track frame offsets:
#	150
#	24307
#	45831
#	65460
#	84820
#	106520
#	136375
#	151232
#	172741
#	193987
#	211216
#	223574
#	249163
#	267289
#	280878
#	294418
#
# Disc length: 4253 seconds
#
# Revision: 2
# Processed by: cddbd v1.4b41PL1 Copyright (c) Steve Scherf et al.
# Submitted via: Feurio! 1.50.2ß - http://www.feurio.com
#
DISCID=cd109b10
DTITLE=Phil Coolins - Best' 99
DYEAR=1900
DGENRE=
TTITLE0=Another Day In paradise
TTITLE1=Don't Lose My Number
TTITLE2=Dance In To The Night
TTITLE3=You'll Be In My Heart
TTITLE4=Something Happend On The Way To Heaven
TTITLE5=Both Sides Of The Story
TTITLE6=Two Worlds
TTITLE7=One More Night
TTITLE8=Hang In Long Enough
TTITLE9=Heat On The Street
TTITLE10=Son Of Man
TTITLE11=Everyday
TTITLE12=Who Said I Would
TTITLE13=It's In Your Eyes
TTITLE14=Strangers Like Me
TTITLE15=In The Ait Tonight
EXTD=
EXTT0=
EXTT1=
EXTT2=
EXTT3=
EXTT4=
EXTT5=
EXTT6=
EXTT7=
EXTT8=
EXTT9=
EXTT10=
EXTT11=
EXTT12=
EXTT13=
EXTT14=
EXTT15=
PLAYORDER=
